<svg id="svg" version="1.1" xmlns="http://www.w3.org/2000/svg" xmlns:xlink="http://www.w3.org/1999/xlink" width="400" height="400" viewBox="0, 0, 400,400"><g id="svgg"><path id="path0" d="M165.625 9.224 C 15.400 37.702,-45.110 219.540,58.425 331.370 C 177.552 460.042,392.155 375.565,392.155 200.000 C 392.155 79.066,282.840 -12.996,165.625 9.224 M234.735 29.490 C 359.939 56.030,416.676 211.664,336.197 307.813 L 328.350 317.188 328.237 299.336 C 327.992 260.335,300.315 219.528,265.792 207.267 L 250.146 201.710 259.098 192.261 C 308.459 140.164,271.854 55.924,199.778 55.749 C 128.213 55.574,91.671 140.301,140.902 192.261 L 149.854 201.710 134.208 207.267 C 99.685 219.528,72.008 260.335,71.763 299.336 L 71.650 317.188 63.642 307.813 C -38.314 188.460,79.622 -3.388,234.735 29.490 M229.558 82.109 C 284.470 113.211,263.454 196.628,200.657 196.824 C 149.255 196.983,120.226 141.598,150.098 100.361 C 168.196 75.377,203.397 67.292,229.558 82.109 M260.834 226.459 C 292.147 241.985,307.118 267.179,308.833 307.235 C 310.192 338.981,311.350 337.248,276.907 355.028 C 226.424 381.090,172.132 380.564,120.044 353.508 C 90.445 338.133,90.625 338.388,90.625 311.841 C 90.625 267.106,109.300 238.265,148.291 222.782 C 164.679 216.274,245.627 218.919,260.834 226.459 " stroke="none" fill="#000000" fill-rule="evenodd"></path></g></svg>