<svg id="svg" version="1.1" xmlns="http://www.w3.org/2000/svg" xmlns:xlink="http://www.w3.org/1999/xlink" width="400" height="400" viewBox="0, 0, 400,400"><g id="svgg"><path id="path0" d="M104.688 60.309 C -13.930 120.470,-14.213 113.372,109.247 174.957 L 200.000 220.226 290.753 174.957 C 383.975 128.456,386.844 126.467,383.870 110.403 C 382.591 103.493,212.171 15.931,200.000 15.931 C 195.703 15.931,152.813 35.901,104.688 60.309 M264.891 86.924 L 325.094 117.266 262.547 148.414 L 200.000 179.563 137.453 148.414 L 74.906 117.266 135.109 86.924 C 168.221 70.237,197.422 56.583,200.000 56.583 C 202.578 56.583,231.779 70.237,264.891 86.924 M20.797 186.965 C 4.054 205.465,9.012 209.449,113.281 261.297 L 200.000 304.419 286.719 261.297 C 390.711 209.587,397.841 203.780,378.660 186.422 C 369.504 178.136,366.475 179.238,281.227 221.887 L 200.000 262.523 118.773 221.887 C 33.739 179.345,29.167 177.716,20.797 186.965 M20.367 270.704 C 4.181 286.890,10.053 291.694,104.688 339.691 C 152.813 364.099,195.703 384.069,200.000 384.069 C 218.665 384.069,382.735 296.106,383.763 285.548 C 386.599 256.390,372.498 259.086,279.703 305.440 L 200.000 345.256 120.297 305.440 C 39.535 265.097,29.473 261.599,20.367 270.704 " stroke="none" fill="#000000" fill-rule="evenodd"></path></g></svg>