<svg id="svg" version="1.1" xmlns="http://www.w3.org/2000/svg" xmlns:xlink="http://www.w3.org/1999/xlink" width="400" height="400" viewBox="0, 0, 400,400"><g id="svgg"><path id="path0" d="M121.094 1.532 C 9.853 20.330,-38.498 151.791,34.033 238.238 C 83.434 297.118,173.054 306.095,233.984 258.267 L 238.672 254.587 241.199 257.567 C 243.713 260.530,243.727 260.595,243.738 269.143 L 243.750 277.738 299.609 333.594 L 355.469 389.449 372.459 372.459 L 389.449 355.469 333.594 299.609 L 277.738 243.750 269.143 243.738 C 260.595 243.727,260.530 243.713,257.567 241.199 L 254.587 238.672 258.267 233.984 C 339.246 130.822,250.087 -20.266,121.094 1.532 M153.238 45.337 C 236.699 53.647,273.894 153.424,215.866 213.342 C 163.837 267.065,73.790 246.720,50.075 175.885 C 29.878 115.558,71.646 51.394,135.068 45.319 C 143.975 44.466,144.500 44.467,153.238 45.337 " stroke="none" fill="#000000" fill-rule="evenodd"></path></g></svg>